<svg width="15" height="15" viewBox="0 0 15 15" fill="none" xmlns="http://www.w3.org/2000/svg">
<path d="M5.62793 10.0735L5.38965 10.3069L3.70508 11.9612L3.46777 12.1956L3 11.72L5.16016 9.59793L5.62793 10.0735ZM8.81641 3.00028C8.90845 2.99651 8.99776 3.03142 9.06348 3.09598L12.334 6.30789C12.334 6.30789 10.3497 8.00609 9.35645 8.83328L9.54102 10.5852V10.6604C9.535 10.7098 9.5179 10.7572 9.49121 10.7991L9.44336 10.8577L8.56445 11.722C8.43477 11.8494 8.22636 11.8494 8.09668 11.722L3.33203 7.04129C3.26824 6.97862 3.23242 6.89244 3.23242 6.80301C3.23243 6.71367 3.26834 6.62836 3.33203 6.56571L4.21191 5.70145L4.26953 5.65555C4.33141 5.61722 4.40475 5.60025 4.47852 5.6077L6.26758 5.78934L8.57812 3.11551L8.62793 3.06864C8.68189 3.02742 8.74747 3.00311 8.81641 3.00028Z" fill="#9D5248"/>
</svg>
